<svg width="900" height="500" viewBox="0 0 900 500" fill="none" xmlns="http://www.w3.org/2000/svg">
<g clip-path="url(#clip0_466_146)">
<path d="M317.641 360.245C305.703 360.245 295.99 350.531 295.99 338.594V327.297C295.99 326.099 295.021 325.13 293.828 325.13H268.208C266.406 325.13 264.948 323.667 264.948 321.87C264.948 320.073 266.406 318.609 268.208 318.609H293.828C298.615 318.609 302.516 322.505 302.516 327.297V338.599C302.516 346.938 309.302 353.724 317.641 353.724C325.979 353.724 332.766 346.938 332.766 338.599V259.188C332.766 257.391 334.229 255.927 336.026 255.927C337.823 255.927 339.286 257.391 339.286 259.188V338.594C339.286 350.531 329.573 360.245 317.641 360.245Z" fill="#3F5C6C"/>
<path d="M342.188 262.448H329.859C328.057 262.448 326.599 260.984 326.599 259.187V247.63C326.599 245.833 328.063 244.37 329.859 244.37H342.188C343.99 244.37 345.448 245.833 345.448 247.63V259.187C345.453 260.984 343.99 262.448 342.188 262.448Z" fill="#395361"/>
<path d="M268.208 378.182H121.057C119.255 378.182 117.797 376.719 117.797 374.922V137.073C117.797 128.651 124.646 121.802 133.068 121.802H256.193C264.615 121.802 271.469 128.651 271.469 137.073V374.917C271.469 376.719 270.005 378.182 268.208 378.182Z" fill="#F56D24"/>
<path d="M342.188 250.896H316.094C314.292 250.896 312.833 249.432 312.833 247.635V212.089C312.833 210.609 313.823 209.323 315.25 208.938L329.589 205.099L329.594 197.427L320.708 185.682C318.068 182.193 318.76 177.208 322.245 174.573C323.63 173.521 325.281 172.969 327.021 172.969C329.5 172.969 331.87 174.146 333.354 176.109L344.792 191.224C345.219 191.792 345.453 192.479 345.453 193.193V247.63C345.453 249.432 343.99 250.891 342.188 250.891V250.896Z" fill="#3F5C6C"/>
<path d="M330.516 250.896H316.094C314.292 250.896 312.833 249.432 312.833 247.635V212.089C312.833 210.609 313.823 209.323 315.25 208.938L316.307 208.656L328.958 223.443C329.927 224.036 330.516 225.089 330.516 226.224V250.896Z" fill="#395361"/>
<path d="M318.76 378.182H70.5052C68.7031 378.182 67.2448 376.719 67.2448 374.922C67.2448 373.12 68.7031 371.661 70.5052 371.661H318.76C320.557 371.661 322.016 373.12 322.016 374.922C322.016 376.719 320.557 378.182 318.76 378.182Z" fill="#395361"/>
<path d="M246.583 211.208H141.776C137.333 211.208 133.714 207.594 133.714 203.146V148.49C133.714 144.042 137.333 140.427 141.776 140.427H246.589C251.031 140.427 254.651 144.042 254.651 148.49V203.146C254.651 207.594 251.031 211.208 246.589 211.208H246.583Z" fill="#89CFF0"/>
<path d="M248.01 233.583H225.635C223.839 233.583 222.375 232.12 222.375 230.323C222.375 228.521 223.839 227.062 225.635 227.062H248.01C249.813 227.062 251.271 228.521 251.271 230.323C251.271 232.12 249.813 233.583 248.01 233.583Z" fill="#3F5C6C"/>
<path d="M248.01 251.901H225.635C223.839 251.901 222.375 250.443 222.375 248.641C222.375 246.844 223.839 245.38 225.635 245.38H248.01C249.813 245.38 251.271 246.844 251.271 248.641C251.271 250.443 249.813 251.901 248.01 251.901Z" fill="#3F5C6C"/>
<path d="M207.021 254.458H140.349C138.552 254.458 137.094 252.995 137.094 251.198V227.771C137.094 225.974 138.552 224.51 140.349 224.51H207.021C208.818 224.51 210.276 225.974 210.276 227.771V251.198C210.281 252.995 208.818 254.458 207.021 254.458Z" fill="#3F5C6C"/>
<path d="M196.411 346.109C181.031 346.109 168.526 333.599 168.526 318.224C168.526 308.828 177.979 296.323 186.323 285.281C189.13 281.568 191.781 278.057 193.682 275.156C194.885 273.313 197.932 273.313 199.135 275.151C201.036 278.052 203.687 281.563 206.495 285.281C214.844 296.318 224.297 308.828 224.297 318.224C224.297 333.599 211.786 346.109 196.411 346.109Z" fill="#3F5C6C"/>
<path d="M441.167 288.401L450.755 331.271L474.682 288.401H495.443L494.922 368.63H474.063L475.542 322.438H475.333L448.729 368.63H440.417L429.349 322.438H429.141L415.109 368.63H394.349L420.641 288.401H441.167ZM560.443 288.401L578.005 368.63H555.766L552.802 354.677H524.068L516.302 368.63H494.162L537.682 288.401H560.443ZM532.354 338.729H549.714L545.245 313.188H545.037L532.354 338.729ZM622.37 286.271C630.958 286.271 639.01 288.469 646.531 292.87L635.672 309.031C631.912 305.479 627.589 303.703 622.703 303.703C620.141 303.703 617.813 304.432 615.719 305.885C613.635 307.339 612.599 309.135 612.599 311.266C612.599 312.823 613.344 314.193 614.833 315.37C616.323 316.547 619.052 317.698 623.016 318.823C628.406 320.453 632.302 322.031 634.708 323.552C637.135 325.078 639.01 326.958 640.349 329.193C641.698 331.427 642.375 334.214 642.375 337.557C642.375 342.375 641.135 347.484 638.656 352.885C636.182 358.271 632.12 362.568 626.474 365.771C620.828 368.958 614.141 370.625 606.417 370.76C596.49 370.76 587.552 367.714 579.604 361.615L591.188 344.781C596.734 350.323 602.448 353.094 608.339 353.094C611.594 353.094 614.339 352.245 616.573 350.547C618.807 348.833 619.927 346.667 619.927 344.052C619.927 340.641 616.521 338.016 609.714 336.182C601.49 333.911 596.162 331.484 593.734 328.906C591.328 326.307 590.125 322.844 590.125 318.516C590.125 309.438 593.224 301.797 599.427 295.599C605.646 289.38 613.292 286.271 622.37 286.271ZM707.083 288.401L704.302 306.068H687.078L677.177 368.63H656.313L666.214 306.068H648.99L651.74 288.401H707.083ZM757.948 288.401L755.167 306.068H730.38L728.25 319.474H751.766L749.01 337.141H725.474L723.24 350.964H748.047L745.271 368.63H699.62L712.297 288.401H757.948ZM800.177 288.401C807.417 288.401 813.219 290.109 817.583 293.521C821.953 296.911 824.135 301.797 824.135 308.172C824.135 314.995 822.104 321.016 818.052 326.229C814.016 331.443 808.839 334.615 802.516 335.74L822.521 368.63H796.568L781.781 337.766H781.552L776.667 368.63H755.802L768.479 288.401H800.177ZM783.682 324.359H786.563C791.464 324.359 795.26 323.328 797.943 321.266C800.646 319.208 801.995 316.193 801.995 312.224C801.995 306.979 797.667 304.354 789.005 304.354H786.875L783.682 324.359Z" stroke="#F56D24" stroke-width="2.32798"/>
<path d="M508.741 133.639L503.95 164.16H460.387L456.7 187.326H496.241L491.45 217.868H451.929L443.283 272.285H407.241L429.116 133.639H508.741Z" fill="#F56D24"/>
<path d="M560.047 133.639L548.651 206.826C547.537 213.451 546.985 218.847 546.985 223.014C546.985 230.004 548.485 235.3 551.485 238.91C554.495 242.524 559.677 244.326 567.026 244.326C575.969 244.326 582.802 241.42 587.526 235.597C592.245 229.78 595.526 220.618 597.36 208.118L608.943 133.639H644.985L632.485 213.451C630.037 229.634 625.808 241.951 619.797 250.41C613.797 258.868 605.797 265.243 595.797 269.535C585.808 273.826 574.568 275.972 562.068 275.972C545.151 275.972 532.156 272.326 523.089 265.035C514.016 257.733 509.485 247.092 509.485 233.118C509.485 230.55 509.599 227.733 509.839 224.66C510.089 221.592 514.808 191.254 524.005 133.639H560.047Z" fill="#F56D24"/>
<path d="M742.644 133.639L737.853 164.16H695.019L691.332 187.326H731.978L727.186 217.868H686.561L682.686 241.764H725.54L720.749 272.285H641.874L663.749 133.639H742.644Z" fill="#F56D24"/>
<path d="M796.879 133.639L779.775 241.764H822.983L818.213 272.285H738.963L760.838 133.639H796.879Z" fill="#F56D24"/>
</g>
<defs>
<clipPath id="clip0_466_146">
<rect width="900" height="500" fill="white"/>
</clipPath>
</defs>
</svg>
